<mxfile host="65bd71144e">
    <diagram id="T8C3bZ8Fw9OgXHhQJTOG" name="Page-1">
        <mxGraphModel dx="1083" dy="557" grid="1" gridSize="10" guides="1" tooltips="1" connect="1" arrows="1" fold="1" page="1" pageScale="1" pageWidth="850" pageHeight="1100" math="0" shadow="0">
            <root>
                <mxCell id="0"/>
                <mxCell id="1" parent="0"/>
                <mxCell id="2" value="Game Objects" style="swimlane;whiteSpace=wrap;html=1;startSize=20;" parent="1" vertex="1" collapsed="1">
                    <mxGeometry x="300" y="350" width="140" height="30" as="geometry">
                        <mxRectangle x="320" y="220" width="200" height="200" as="alternateBounds"/>
                    </mxGeometry>
                </mxCell>
                <mxCell id="4" value="Scripts" style="swimlane;whiteSpace=wrap;html=1;" parent="1" vertex="1" collapsed="1">
                    <mxGeometry x="110" y="350" width="80" height="30" as="geometry">
                        <mxRectangle x="200" y="370" width="200" height="200" as="alternateBounds"/>
                    </mxGeometry>
                </mxCell>
                <mxCell id="5" value="Scene" style="swimlane;whiteSpace=wrap;html=1;startSize=23;" parent="1" vertex="1">
                    <mxGeometry x="270" y="245" width="200" height="40" as="geometry">
                        <mxRectangle x="270" y="250" width="80" height="40" as="alternateBounds"/>
                    </mxGeometry>
                </mxCell>
                <mxCell id="12" style="edgeStyle=none;html=1;exitX=0.5;exitY=1;exitDx=0;exitDy=0;entryX=0.5;entryY=0;entryDx=0;entryDy=0;" parent="1" source="11" target="14" edge="1">
                    <mxGeometry relative="1" as="geometry">
                        <mxPoint x="150" y="240" as="targetPoint"/>
                        <Array as="points"/>
                    </mxGeometry>
                </mxCell>
                <mxCell id="11" value="Users" style="swimlane;whiteSpace=wrap;html=1;" parent="1" vertex="1" collapsed="1">
                    <mxGeometry x="10" y="140" width="70" height="30" as="geometry">
                        <mxRectangle x="200" y="210" width="200" height="200" as="alternateBounds"/>
                    </mxGeometry>
                </mxCell>
                <mxCell id="14" value="Project" style="swimlane;whiteSpace=wrap;html=1;" parent="1" vertex="1" collapsed="1">
                    <mxGeometry x="110" y="250" width="80" height="30" as="geometry">
                        <mxRectangle x="320" y="190" width="200" height="200" as="alternateBounds"/>
                    </mxGeometry>
                </mxCell>
                <mxCell id="15" value="" style="endArrow=classic;html=1;exitX=0.5;exitY=0;exitDx=0;exitDy=0;entryX=0.5;entryY=1;entryDx=0;entryDy=0;" parent="1" source="2" target="5" edge="1">
                    <mxGeometry width="50" height="50" relative="1" as="geometry">
                        <mxPoint x="400" y="310" as="sourcePoint"/>
                        <mxPoint x="450" y="260" as="targetPoint"/>
                    </mxGeometry>
                </mxCell>
                <mxCell id="16" value="" style="endArrow=classic;html=1;exitX=0.5;exitY=0;exitDx=0;exitDy=0;entryX=0.5;entryY=1;entryDx=0;entryDy=0;" parent="1" source="4" target="14" edge="1">
                    <mxGeometry width="50" height="50" relative="1" as="geometry">
                        <mxPoint x="400" y="310" as="sourcePoint"/>
                        <mxPoint x="450" y="260" as="targetPoint"/>
                    </mxGeometry>
                </mxCell>
                <mxCell id="20" value="" style="endArrow=classic;html=1;entryX=1;entryY=0.5;entryDx=0;entryDy=0;exitX=0;exitY=0.5;exitDx=0;exitDy=0;" parent="1" source="5" target="14" edge="1">
                    <mxGeometry width="50" height="50" relative="1" as="geometry">
                        <mxPoint x="400" y="310" as="sourcePoint"/>
                        <mxPoint x="450" y="260" as="targetPoint"/>
                    </mxGeometry>
                </mxCell>
                <mxCell id="22" value="Game Object Scripts" style="swimlane;whiteSpace=wrap;html=1;" vertex="1" parent="1">
                    <mxGeometry x="160" y="470" width="200" height="40" as="geometry"/>
                </mxCell>
                <mxCell id="24" value="" style="endArrow=classic;html=1;exitX=0.5;exitY=0;exitDx=0;exitDy=0;entryX=0.5;entryY=1;entryDx=0;entryDy=0;" edge="1" parent="1" source="22" target="2">
                    <mxGeometry width="50" height="50" relative="1" as="geometry">
                        <mxPoint x="400" y="560" as="sourcePoint"/>
                        <mxPoint x="450" y="510" as="targetPoint"/>
                    </mxGeometry>
                </mxCell>
                <mxCell id="25" value="" style="endArrow=classic;html=1;exitX=0.5;exitY=0;exitDx=0;exitDy=0;entryX=0.5;entryY=1;entryDx=0;entryDy=0;" edge="1" parent="1" source="22" target="4">
                    <mxGeometry width="50" height="50" relative="1" as="geometry">
                        <mxPoint x="40" y="480" as="sourcePoint"/>
                        <mxPoint x="90" y="430" as="targetPoint"/>
                    </mxGeometry>
                </mxCell>
            </root>
        </mxGraphModel>
    </diagram>
</mxfile>